<?xml version="1.0" encoding="UTF-8" standalone="no"?>
<svg
   xmlns:dc="http://purl.org/dc/elements/1.1/"
   xmlns:cc="http://creativecommons.org/ns#"
   xmlns:rdf="http://www.w3.org/1999/02/22-rdf-syntax-ns#"
   xmlns:svg="http://www.w3.org/2000/svg"
   xmlns="http://www.w3.org/2000/svg"
   version="1.1"
   id="svg3381"
   viewBox="0 0 29.882819 29.882809"
   height="8.4335928mm"
   width="8.4335957mm">
  <defs
     id="defs3383" />
  <metadata
     id="metadata3386">
    <rdf:RDF>
      <cc:Work
         rdf:about="">
        <dc:format>image/svg+xml</dc:format>
        <dc:type
           rdf:resource="http://purl.org/dc/dcmitype/StillImage" />
        <dc:title></dc:title>
      </cc:Work>
    </rdf:RDF>
  </metadata>
  <g
     transform="translate(-285.05859,-620.27794)"
     id="layer1">
    <path
       d="m 298.55469,650.16075 0,-4.92187 q -2.40235,-0.41016 -4.60938,-1.91407 l -3.45703,3.45703 -2.05078,-2.05078 3.45703,-3.4375 q -1.44531,-2.05078 -1.91406,-4.6289 l -4.92188,0 0,-2.89063 4.92188,0 q 0.46875,-2.57812 1.91406,-4.6289 l -3.45703,-3.4375 2.05078,-2.05079 3.45703,3.45704 q 2.20703,-1.50391 4.60938,-1.91407 l 0,-4.92187 2.89062,0 0,4.92187 q 2.40235,0.41016 4.60938,1.91407 l 3.45703,-3.45704 2.03125,2.05079 -3.4375,3.4375 q 1.44531,2.05078 1.91406,4.6289 l 4.92188,0 0,2.89063 -4.92188,0 q -0.46875,2.57812 -1.91406,4.6289 l 3.4375,3.4375 -2.03125,2.05078 -3.45703,-3.45703 q -2.20703,1.50391 -4.60938,1.91407 l 0,4.92187 -2.89062,0 z M 300,642.44591 q 2.98828,0 5.09766,-2.10938 2.1289,-2.1289 2.1289,-5.11719 0,-3.00781 -2.1289,-5.11718 -2.10938,-2.10938 -5.09766,-2.10938 -3.00781,0 -5.11719,2.10938 -2.10937,2.10937 -2.10937,5.11718 0,2.98829 2.10937,5.11719 2.10938,2.10938 5.11719,2.10938 z"
       style="font-style:normal;font-variant:normal;font-weight:normal;font-stretch:normal;font-size:40px;line-height:125%;font-family:'Lucida Sans Unicode';-inkscape-font-specification:'Lucida Sans Unicode';text-align:end;letter-spacing:0px;word-spacing:0px;text-anchor:end;fill:#000000;fill-opacity:1;stroke:none;stroke-width:1px;stroke-linecap:butt;stroke-linejoin:miter;stroke-opacity:1"
       id="path3366" />
  </g>
</svg>
