<?xml version="1.0" encoding="UTF-8" standalone="no"?>
<svg
   xmlns:dc="http://purl.org/dc/elements/1.1/"
   xmlns:cc="http://creativecommons.org/ns#"
   xmlns:rdf="http://www.w3.org/1999/02/22-rdf-syntax-ns#"
   xmlns:svg="http://www.w3.org/2000/svg"
   xmlns="http://www.w3.org/2000/svg"
   version="1.1"
   id="svg2"
   viewBox="0 0 26.26735 26.26736"
   height="7.4132328mm"
   width="7.4132299mm">
  <defs
     id="defs4" />
  <metadata
     id="metadata7">
    <rdf:RDF>
      <cc:Work
         rdf:about="">
        <dc:format>image/svg+xml</dc:format>
        <dc:type
           rdf:resource="http://purl.org/dc/dcmitype/StillImage" />
        <dc:title></dc:title>
      </cc:Work>
    </rdf:RDF>
  </metadata>
  <g
     transform="translate(-142.50719,-455.11881)"
     id="layer1">
    <flowRoot
       style="font-style:normal;font-weight:normal;font-size:25px;line-height:125%;font-family:Sans;text-align:end;letter-spacing:0px;word-spacing:0px;text-anchor:end;fill:#000000;fill-opacity:1;stroke:none;stroke-width:1px;stroke-linecap:butt;stroke-linejoin:miter;stroke-opacity:1"
       id="flowRoot3336"
       xml:space="preserve"><flowRegion
         id="flowRegion3338"><rect
           y="378.59045"
           x="23.233509"
           height="191.92899"
           width="357.59399"
           id="rect3340" /></flowRegion><flowPara
         id="flowPara3342"></flowPara></flowRoot>    <path
       d="m 156.89087,457.16742 q -2.96875,0.9375 -5,3.28125 -2.96875,3.4375 -2.96875,7.8125 0,4.0625 2.5,7.1875 2.1875,2.8125 5.46875,3.90625 -4.6875,-3.90625 -4.6875,-11.09375 0,-7.1875 4.6875,-11.09375 z m 7.65625,-0.9375 q -4.84375,0.15625 -7.65625,3.90625 -2.5,3.4375 -2.5,8.125 0,4.6875 2.5,8.125 2.8125,3.90625 7.65625,3.90625 -1.5625,1.09375 -4.375,1.09375 -4.84375,0 -8.75,-2.96875 -4.6875,-3.75 -4.6875,-10.15625 0,-6.25 4.0625,-9.6875 3.75,-3.28125 8.59375,-3.4375 3.4375,-0.15625 5.15625,1.09375 z"
       style="font-style:normal;font-variant:normal;font-weight:normal;font-stretch:normal;font-size:40px;line-height:125%;font-family:'Lucida Sans Unicode';-inkscape-font-specification:'Lucida Sans Unicode';text-align:end;letter-spacing:0px;word-spacing:0px;text-anchor:end;fill:#000000;fill-opacity:1;stroke:none;stroke-width:1px;stroke-linecap:butt;stroke-linejoin:miter;stroke-opacity:1"
       id="path3368" />
  </g>
</svg>
